<svg width="25" height="20" viewBox="0 0 25 20" fill="none" xmlns="http://www.w3.org/2000/svg">
<g clip-path="url(#clip0_1_18)">
<path d="M10 0H22.5C23.8789 0 25 1.12109 25 2.5V11.25C25 12.6289 23.8789 13.75 22.5 13.75H10C8.62109 13.75 7.5 12.6289 7.5 11.25V2.5C7.5 1.12109 8.62109 0 10 0ZM18.5938 4.16797C18.418 3.90625 18.125 3.75 17.8125 3.75C17.5 3.75 17.207 3.90625 17.0312 4.16797L14.8438 7.44922L14.168 6.60156C13.9883 6.37891 13.7187 6.25 13.4375 6.25C13.1563 6.25 12.8828 6.37891 12.707 6.60156L10.207 9.72656C9.98047 10.0078 9.9375 10.3945 10.0937 10.7187C10.25 11.043 10.5781 11.25 10.9375 11.25H14.0625H15.9375H21.5625C21.9102 11.25 22.2266 11.0586 22.3906 10.7539C22.5547 10.4492 22.5352 10.0781 22.3438 9.79297L18.5938 4.16797ZM13.125 3.75C13.125 3.41848 12.9933 3.10054 12.7589 2.86612C12.5245 2.6317 12.2065 2.5 11.875 2.5C11.5435 2.5 11.2255 2.6317 10.9911 2.86612C10.7567 3.10054 10.625 3.41848 10.625 3.75C10.625 4.08152 10.7567 4.39946 10.9911 4.63388C11.2255 4.8683 11.5435 5 11.875 5C12.2065 5 12.5245 4.8683 12.7589 4.63388C12.9933 4.39946 13.125 4.08152 13.125 3.75ZM2.5 5H6.25V15V16.25C6.25 16.9414 6.80859 17.5 7.5 17.5H12.5C13.1914 17.5 13.75 16.9414 13.75 16.25V15H20V17.5C20 18.8789 18.8789 20 17.5 20H2.5C1.12109 20 0 18.8789 0 17.5V7.5C0 6.12109 1.12109 5 2.5 5ZM2.8125 7.5C2.46875 7.5 2.1875 7.78125 2.1875 8.125V8.75C2.1875 9.09375 2.46875 9.375 2.8125 9.375H3.4375C3.78125 9.375 4.0625 9.09375 4.0625 8.75V8.125C4.0625 7.78125 3.78125 7.5 3.4375 7.5H2.8125ZM2.8125 11.5625C2.46875 11.5625 2.1875 11.8437 2.1875 12.1875V12.8125C2.1875 13.1563 2.46875 13.4375 2.8125 13.4375H3.4375C3.78125 13.4375 4.0625 13.1563 4.0625 12.8125V12.1875C4.0625 11.8437 3.78125 11.5625 3.4375 11.5625H2.8125ZM2.8125 15.625C2.46875 15.625 2.1875 15.9062 2.1875 16.25V16.875C2.1875 17.2188 2.46875 17.5 2.8125 17.5H3.4375C3.78125 17.5 4.0625 17.2188 4.0625 16.875V16.25C4.0625 15.9062 3.78125 15.625 3.4375 15.625H2.8125ZM15.9375 16.25V16.875C15.9375 17.2188 16.2187 17.5 16.5625 17.5H17.1875C17.5313 17.5 17.8125 17.2188 17.8125 16.875V16.25C17.8125 15.9062 17.5313 15.625 17.1875 15.625H16.5625C16.2187 15.625 15.9375 15.9062 15.9375 16.25Z" fill="black"/>
</g>
<defs>
<clipPath id="clip0_1_18">
<rect width="25" height="20" fill="white"/>
</clipPath>
</defs>
</svg>
