<svg width="25" height="20" viewBox="0 0 25 20" fill="none" xmlns="http://www.w3.org/2000/svg">
<path d="M0 3.125C0 2.08984 1.19978 1.25 2.67857 1.25H8.03571C9.51451 1.25 10.7143 2.08984 10.7143 3.125V6.875C10.7143 7.91016 9.51451 8.75 8.03571 8.75H2.67857C1.19978 8.75 0 7.91016 0 6.875V3.125ZM3.57143 3.75V6.25H7.14286V3.75H3.57143ZM0 13.125C0 12.0898 1.19978 11.25 2.67857 11.25H8.03571C9.51451 11.25 10.7143 12.0898 10.7143 13.125V16.875C10.7143 17.9102 9.51451 18.75 8.03571 18.75H2.67857C1.19978 18.75 0 17.9102 0 16.875V13.125ZM3.57143 13.75V16.25H7.14286V13.75H3.57143ZM16.9643 1.25H22.3214C23.8002 1.25 25 2.08984 25 3.125V6.875C25 7.91016 23.8002 8.75 22.3214 8.75H16.9643C15.4855 8.75 14.2857 7.91016 14.2857 6.875V3.125C14.2857 2.08984 15.4855 1.25 16.9643 1.25ZM21.4286 3.75H17.8571V6.25H21.4286V3.75ZM14.2857 11.875C14.2857 11.5312 14.6875 11.25 15.1786 11.25H18.75C19.2411 11.25 19.6429 11.5312 19.6429 11.875C19.6429 12.2188 20.0446 12.5 20.5357 12.5H22.3214C22.8125 12.5 23.2143 12.2188 23.2143 11.875C23.2143 11.5312 23.6161 11.25 24.1071 11.25C24.5982 11.25 25 11.5312 25 11.875V15.625C25 15.9688 24.5982 16.25 24.1071 16.25H20.5357C20.0446 16.25 19.6429 15.9688 19.6429 15.625C19.6429 15.2812 19.2411 15 18.75 15C18.2589 15 17.8571 15.2812 17.8571 15.625V18.125C17.8571 18.4688 17.4554 18.75 16.9643 18.75H15.1786C14.6875 18.75 14.2857 18.4688 14.2857 18.125V11.875ZM20.5357 18.75C20.2989 18.75 20.0718 18.6842 19.9044 18.5669C19.7369 18.4497 19.6429 18.2908 19.6429 18.125C19.6429 17.9592 19.7369 17.8003 19.9044 17.6831C20.0718 17.5658 20.2989 17.5 20.5357 17.5C20.7725 17.5 20.9996 17.5658 21.1671 17.6831C21.3345 17.8003 21.4286 17.9592 21.4286 18.125C21.4286 18.2908 21.3345 18.4497 21.1671 18.5669C20.9996 18.6842 20.7725 18.75 20.5357 18.75ZM24.1071 18.75C23.8703 18.75 23.6432 18.6842 23.4758 18.5669C23.3084 18.4497 23.2143 18.2908 23.2143 18.125C23.2143 17.9592 23.3084 17.8003 23.4758 17.6831C23.6432 17.5658 23.8703 17.5 24.1071 17.5C24.3439 17.5 24.571 17.5658 24.7385 17.6831C24.9059 17.8003 25 17.9592 25 18.125C25 18.2908 24.9059 18.4497 24.7385 18.5669C24.571 18.6842 24.3439 18.75 24.1071 18.75Z" fill="black"/>
</svg>
