<svg width="25" height="20" viewBox="0 0 25 20" fill="none" xmlns="http://www.w3.org/2000/svg">
<path d="M2.11743 7.92578C4.81274 5.33984 8.46899 3.75 12.5002 3.75C16.5315 3.75 20.1877 5.33984 22.8831 7.92578C23.3831 8.40234 24.1721 8.38672 24.6487 7.89062C25.1252 7.39453 25.1096 6.60156 24.6135 6.125C21.4729 3.10547 17.2034 1.25 12.5002 1.25C7.79712 1.25 3.52758 3.10547 0.383053 6.12109C-0.11304 6.60156 -0.128665 7.39062 0.347897 7.89062C0.82446 8.39063 1.61743 8.40625 2.11352 7.92578H2.11743ZM12.5002 10C14.719 10 16.7424 10.8242 18.2893 12.1875C18.8088 12.6445 19.5979 12.5938 20.0549 12.0781C20.512 11.5625 20.4612 10.7695 19.9456 10.3125C17.9612 8.5625 15.3518 7.5 12.5002 7.5C9.64868 7.5 7.0393 8.5625 5.05883 10.3125C4.5393 10.7695 4.49243 11.5586 4.94946 12.0781C5.40649 12.5977 6.19555 12.6445 6.71508 12.1875C8.25805 10.8242 10.2815 10 12.5041 10H12.5002ZM15.0002 16.25C15.0002 15.587 14.7368 14.9511 14.268 14.4822C13.7992 14.0134 13.1633 13.75 12.5002 13.75C11.8372 13.75 11.2013 14.0134 10.7325 14.4822C10.2636 14.9511 10.0002 15.587 10.0002 16.25C10.0002 16.913 10.2636 17.5489 10.7325 18.0178C11.2013 18.4866 11.8372 18.75 12.5002 18.75C13.1633 18.75 13.7992 18.4866 14.268 18.0178C14.7368 17.5489 15.0002 16.913 15.0002 16.25Z" fill="black"/>
</svg>
